<?xml version="1.0" encoding="UTF-8"?>
<svg id="_图层_1" data-name="图层_1" xmlns="http://www.w3.org/2000/svg" version="1.1" viewBox="0 0 159.33 159.32">
  <!-- Generator: Adobe Illustrator 29.0.1, SVG Export Plug-In . SVG Version: 2.1.0 Build 192)  -->
  <defs>
    <style>
      .st0 {
        fill: #444;
      }

      .st1 {
        fill: #fff;
      }
    </style>
  </defs>
  <rect class="st0" x="0" width="159.33" height="159.32"/>
  <g>
    <path class="st1" d="M38.56,64.67l-6.66,18.15c-.29.92-.35,1.6-.17,2.03s1.04.71,2.59.82l5.79.43v2.07c-.58-.06-1.74-.1-3.5-.13-1.76-.03-4.14-.04-7.13-.04s-5.37.02-7.13.04c-1.76.03-2.93.07-3.5.13v-2.07l5.45-.43c1.9-.17,3.23-1.24,3.98-3.2l19.88-51.52h3.54l19.11,50.92c.4.98.78,1.64,1.12,1.99.35.35.98.66,1.9.95l4.76,1.47v1.99c-1.1-.06-2.58-.12-4.45-.17-1.87-.06-3.9-.09-6.09-.09h-6.14c-3.8,0-7,.09-9.6.26v-1.99l5.62-.86c.81-.12,1.44-.24,1.9-.39.46-.14.76-.35.91-.6.14-.26.19-.58.13-.95-.06-.37-.2-.85-.43-1.43l-6.4-17.38h-15.48ZM52.82,61.56l-6.22-18.59-6.83,18.59h13.05Z"/>
    <path class="st1" d="M87.32,81.51c0-1.38-.17-2.35-.52-2.9-.35-.55-1.01-.94-1.99-1.17l-5.36-1.04v-2.25c1.9.06,4.13.04,6.7-.04,2.56-.09,5.22-.19,7.95-.3,2.74-.11,5.42-.22,8.04-.3,2.62-.09,4.91-.13,6.87-.13,4.44.06,8.57.66,12.4,1.82,3.83,1.15,7.16,2.87,9.98,5.14,2.82,2.28,5.04,5.1,6.66,8.47,1.61,3.37,2.42,7.25,2.42,11.63,0,4.15-.79,7.95-2.38,11.41-1.59,3.46-3.75,6.41-6.48,8.86-2.74,2.45-5.92,4.35-9.55,5.71-3.63,1.35-7.52,2-11.67,1.95l-14.01-.35h-17.81v-2.16l6.22-1.47c.92-.17,1.57-.55,1.95-1.12.37-.58.56-1.67.56-3.28v-38.47ZM96.39,117.9c0,.92.23,1.83.69,2.72.46.89,1.17,1.7,2.12,2.42.95.72,2.15,1.3,3.59,1.73s3.14.65,5.1.65c3.46,0,6.54-.59,9.25-1.77,2.71-1.18,5-2.87,6.87-5.06,1.87-2.19,3.29-4.84,4.24-7.95.95-3.11,1.43-6.63,1.43-10.55,0-3.69-.58-7-1.73-9.94-1.15-2.94-2.82-5.42-5.01-7.43-2.19-2.02-4.86-3.57-8-4.67-3.14-1.09-6.7-1.64-10.68-1.64-2.19,0-3.75.09-4.67.26-.92.17-1.58.4-1.99.69-.81.63-1.21,2.02-1.21,4.15v36.4Z"/>
  </g>
</svg>
